<svg width="180" height="150" viewBox="0 0 180 150" fill="none" xmlns="http://www.w3.org/2000/svg">
<rect y="15.5488" width="180" height="40.4726" fill="#E44545"/>
<rect y="63.7959" width="180" height="86.2043" fill="#E44545"/>
<rect x="30.5217" width="32.6087" height="8.00305" fill="#E44545"/>
<rect x="54" y="8.00317" width="9.13043" height="7.54573" fill="#E44545"/>
<rect x="30.5217" y="8.00317" width="9.13043" height="7.54573" fill="#E44545"/>
<rect x="30.5217" y="15.5488" width="9.13043" height="26.9817" fill="white"/>
<rect x="39.6521" y="34.5273" width="9.65217" height="8.00305" fill="white"/>
<rect x="73.5652" width="32.6087" height="8.00305" fill="#E44545"/>
<rect x="97.0435" y="8.00317" width="9.13043" height="7.54573" fill="#E44545"/>
<rect x="73.5652" y="8.00317" width="9.13043" height="7.54573" fill="#E44545"/>
<rect x="73.5652" y="15.5488" width="9.13043" height="26.9817" fill="white"/>
<rect x="82.6956" y="34.5273" width="9.65217" height="8.00305" fill="white"/>
<rect x="116.609" width="32.6087" height="8.00305" fill="#E44545"/>
<rect x="140.087" y="8.00317" width="9.13043" height="7.54573" fill="#E44545"/>
<rect x="116.609" y="8.00317" width="9.13043" height="7.54573" fill="#E44545"/>
<rect x="116.609" y="15.5488" width="9.13043" height="26.9817" fill="white"/>
<rect x="125.739" y="34.5273" width="9.65217" height="8.00305" fill="white"/>
</svg>
