<svg width="60" height="60" viewBox="0 0 60 60" fill="none" xmlns="http://www.w3.org/2000/svg">
<rect x="11.25" y="3.75" width="3.75" height="3.75" fill="#CE9FE3"/>
<rect x="15" y="3.75" width="3.75" height="3.75" fill="#CE9FE3"/>
<rect x="18.75" y="3.75" width="3.75" height="3.75" fill="#CE9FE3"/>
<rect x="22.5" y="3.75" width="3.75" height="3.75" fill="#CE9FE3"/>
<rect x="26.25" y="3.75" width="3.75" height="3.75" fill="#CE9FE3"/>
<rect x="30" y="3.75" width="3.75" height="3.75" fill="#CE9FE3"/>
<rect x="33.75" y="3.75" width="3.75" height="3.75" fill="#CE9FE3"/>
<rect x="37.5" y="3.75" width="3.75" height="3.75" fill="#CE9FE3"/>
<rect x="41.25" y="3.75" width="3.75" height="3.75" fill="#CE9FE3"/>
<rect x="11.25" y="7.5" width="3.75" height="3.75" fill="#CE9FE3"/>
<rect x="15" y="7.5" width="3.75" height="3.75" fill="#CE9FE3"/>
<rect x="18.75" y="7.5" width="3.75" height="3.75" fill="#CE9FE3"/>
<rect x="22.5" y="7.5" width="3.75" height="3.75" fill="#CE9FE3"/>
<rect x="26.25" y="7.5" width="3.75" height="3.75" fill="#CE9FE3"/>
<rect x="30" y="7.5" width="3.75" height="3.75" fill="#CE9FE3"/>
<rect x="33.75" y="7.5" width="3.75" height="3.75" fill="#CE9FE3"/>
<rect x="37.5" y="7.5" width="3.75" height="3.75" fill="#CE9FE3"/>
<rect x="41.25" y="7.5" width="3.75" height="3.75" fill="#CE9FE3"/>
<rect x="11.25" y="11.25" width="3.75" height="3.75" fill="#CE9FE3"/>
<rect x="15" y="11.25" width="3.75" height="3.75" fill="#CE9FE3"/>
<rect x="18.75" y="11.25" width="3.75" height="3.75" fill="#CE9FE3"/>
<rect x="22.5" y="11.25" width="3.75" height="3.75" fill="#CE9FE3"/>
<rect x="26.25" y="11.25" width="3.75" height="3.75" fill="#CE9FE3"/>
<rect x="30" y="11.25" width="3.75" height="3.75" fill="#CE9FE3"/>
<rect x="33.75" y="11.25" width="3.75" height="3.75" fill="#CE9FE3"/>
<rect x="37.5" y="11.25" width="3.75" height="3.75" fill="#CE9FE3"/>
<rect x="41.25" y="11.25" width="3.75" height="3.75" fill="#CE9FE3"/>
<rect x="45" y="11.25" width="3.75" height="3.75" fill="#CE9FE3"/>
<rect x="48.75" y="11.25" width="3.75" height="3.75" fill="#CE9FE3"/>
<rect x="11.25" y="15" width="3.75" height="3.75" fill="#CE9FE3"/>
<rect x="15" y="15" width="3.75" height="3.75" fill="#CE9FE3"/>
<rect x="18.75" y="15" width="3.75" height="3.75" fill="#CE9FE3"/>
<rect x="22.5" y="15" width="3.75" height="3.75" fill="#CE9FE3"/>
<rect x="26.25" y="15" width="3.75" height="3.75" fill="#CE9FE3"/>
<rect x="30" y="15" width="3.75" height="3.75" fill="#CE9FE3"/>
<rect x="33.75" y="15" width="3.75" height="3.75" fill="#CE9FE3"/>
<rect x="37.5" y="15" width="3.75" height="3.75" fill="#CE9FE3"/>
<rect x="41.25" y="15" width="3.75" height="3.75" fill="#CE9FE3"/>
<rect x="45" y="15" width="3.75" height="3.75" fill="#CE9FE3"/>
<rect x="48.75" y="15" width="3.75" height="3.75" fill="#CE9FE3"/>
<rect x="52.5" y="15" width="3.75" height="3.75" fill="#CE9FE3"/>
<rect x="7.5" y="18.75" width="3.75" height="3.75" fill="#CE9FE3"/>
<rect x="11.25" y="18.75" width="3.75" height="3.75" fill="#CE9FE3"/>
<rect x="15" y="18.75" width="3.75" height="3.75" fill="#CE9FE3"/>
<rect x="18.75" y="18.75" width="3.75" height="3.75" fill="#CE9FE3"/>
<rect x="22.5" y="18.75" width="3.75" height="3.75" fill="#CE9FE3"/>
<rect x="26.25" y="18.75" width="3.75" height="3.75" fill="#CE9FE3"/>
<rect x="30" y="18.75" width="3.75" height="3.75" fill="#CE9FE3"/>
<rect x="33.75" y="18.75" width="3.75" height="3.75" fill="#CE9FE3"/>
<rect x="37.5" y="18.75" width="3.75" height="3.75" fill="#CE9FE3"/>
<rect x="41.25" y="18.75" width="3.75" height="3.75" fill="#CE9FE3"/>
<rect x="45" y="18.75" width="3.75" height="3.75" fill="#CE9FE3"/>
<rect x="48.75" y="18.75" width="3.75" height="3.75" fill="#CE9FE3"/>
<rect x="52.5" y="18.75" width="3.75" height="3.75" fill="#CE9FE3"/>
<rect x="3.75" y="22.5" width="3.75" height="3.75" fill="#CE9FE3"/>
<rect x="7.5" y="22.5" width="3.75" height="3.75" fill="#CE9FE3"/>
<rect x="11.25" y="22.5" width="3.75" height="3.75" fill="#CE9FE3"/>
<rect x="15" y="22.5" width="3.75" height="3.75" fill="#CE9FE3"/>
<rect x="18.75" y="22.5" width="3.75" height="3.75" fill="#CE9FE3"/>
<rect x="22.5" y="22.5" width="3.75" height="3.75" fill="#CE9FE3"/>
<rect x="26.25" y="22.5" width="3.75" height="3.75" fill="#CE9FE3"/>
<rect x="30" y="22.5" width="3.75" height="3.75" fill="#CE9FE3"/>
<rect x="33.75" y="22.5" width="3.75" height="3.75" fill="#CE9FE3"/>
<rect x="37.5" y="22.5" width="3.75" height="3.75" fill="#CE9FE3"/>
<rect x="41.25" y="22.5" width="3.75" height="3.75" fill="#CE9FE3"/>
<rect x="45" y="22.5" width="3.75" height="3.75" fill="#CE9FE3"/>
<rect x="48.75" y="22.5" width="3.75" height="3.75" fill="#CE9FE3"/>
<rect x="52.5" y="22.5" width="3.75" height="3.75" fill="#CE9FE3"/>
<rect x="3.75" y="26.25" width="3.75" height="3.75" fill="#CE9FE3"/>
<rect x="7.5" y="26.25" width="3.75" height="3.75" fill="#CE9FE3"/>
<rect x="11.25" y="26.25" width="3.75" height="3.75" fill="#CE9FE3"/>
<rect x="15" y="26.25" width="3.75" height="3.75" fill="#CE9FE3"/>
<rect x="18.75" y="26.25" width="3.75" height="3.75" fill="#CE9FE3"/>
<rect x="22.5" y="26.25" width="3.75" height="3.75" fill="#CE9FE3"/>
<rect x="26.25" y="26.25" width="3.75" height="3.75" fill="#CE9FE3"/>
<rect x="30" y="26.25" width="3.75" height="3.75" fill="#CE9FE3"/>
<rect x="33.75" y="26.25" width="3.75" height="3.75" fill="#CE9FE3"/>
<rect x="37.5" y="26.25" width="3.75" height="3.75" fill="#CE9FE3"/>
<rect x="41.25" y="26.25" width="3.75" height="3.75" fill="#CE9FE3"/>
<rect x="45" y="26.25" width="3.75" height="3.75" fill="#CE9FE3"/>
<rect x="48.75" y="26.25" width="3.75" height="3.75" fill="#CE9FE3"/>
<rect x="52.5" y="26.25" width="3.75" height="3.75" fill="#CE9FE3"/>
<rect x="3.75" y="30" width="3.75" height="3.75" fill="#CE9FE3"/>
<rect x="7.5" y="30" width="3.75" height="3.75" fill="#CE9FE3"/>
<rect x="11.25" y="30" width="3.75" height="3.75" fill="#CE9FE3"/>
<rect x="15" y="30" width="3.75" height="3.75" fill="#CE9FE3"/>
<rect x="18.75" y="30" width="3.75" height="3.75" fill="#CE9FE3"/>
<rect x="22.5" y="30" width="3.75" height="3.75" fill="#CE9FE3"/>
<rect x="26.25" y="30" width="3.75" height="3.75" fill="#CE9FE3"/>
<rect x="30" y="30" width="3.75" height="3.75" fill="#CE9FE3"/>
<rect x="33.75" y="30" width="3.75" height="3.75" fill="#CE9FE3"/>
<rect x="37.5" y="30" width="3.75" height="3.75" fill="#CE9FE3"/>
<rect x="41.25" y="30" width="3.75" height="3.75" fill="#CE9FE3"/>
<rect x="45" y="30" width="3.75" height="3.75" fill="#CE9FE3"/>
<rect x="48.75" y="30" width="3.75" height="3.75" fill="#CE9FE3"/>
<rect x="52.5" y="30" width="3.75" height="3.75" fill="#CE9FE3"/>
<rect x="3.75" y="33.75" width="3.75" height="3.75" fill="#CE9FE3"/>
<rect x="7.5" y="33.75" width="3.75" height="3.75" fill="#CE9FE3"/>
<rect x="11.25" y="33.75" width="3.75" height="3.75" fill="#CE9FE3"/>
<rect x="15" y="33.75" width="3.75" height="3.75" fill="#CE9FE3"/>
<rect x="18.75" y="33.75" width="3.75" height="3.75" fill="#CE9FE3"/>
<rect x="22.5" y="33.75" width="3.75" height="3.75" fill="#CE9FE3"/>
<rect x="26.25" y="33.75" width="3.75" height="3.75" fill="#CE9FE3"/>
<rect x="30" y="33.75" width="3.75" height="3.75" fill="#CE9FE3"/>
<rect x="33.75" y="33.75" width="3.75" height="3.75" fill="#CE9FE3"/>
<rect x="37.5" y="33.75" width="3.75" height="3.75" fill="#CE9FE3"/>
<rect x="41.25" y="33.75" width="3.75" height="3.75" fill="#CE9FE3"/>
<rect x="45" y="33.75" width="3.75" height="3.75" fill="#CE9FE3"/>
<rect x="48.75" y="33.75" width="3.75" height="3.75" fill="#CE9FE3"/>
<rect x="52.5" y="33.75" width="3.75" height="3.75" fill="#CE9FE3"/>
<rect x="3.75" y="37.5" width="3.75" height="3.75" fill="#CE9FE3"/>
<rect x="7.5" y="37.5" width="3.75" height="3.75" fill="#CE9FE3"/>
<rect x="11.25" y="37.5" width="3.75" height="3.75" fill="#CE9FE3"/>
<rect x="15" y="37.5" width="3.75" height="3.75" fill="#CE9FE3"/>
<rect x="18.75" y="37.5" width="3.75" height="3.75" fill="#CE9FE3"/>
<rect x="22.5" y="37.5" width="3.75" height="3.75" fill="#CE9FE3"/>
<rect x="26.25" y="37.5" width="3.75" height="3.75" fill="#CE9FE3"/>
<rect x="30" y="37.5" width="3.75" height="3.75" fill="#CE9FE3"/>
<rect x="33.75" y="37.5" width="3.75" height="3.75" fill="#CE9FE3"/>
<rect x="37.5" y="37.5" width="3.75" height="3.75" fill="#CE9FE3"/>
<rect x="41.25" y="37.5" width="3.75" height="3.75" fill="#CE9FE3"/>
<rect x="45" y="37.5" width="3.75" height="3.75" fill="#CE9FE3"/>
<rect x="48.75" y="37.5" width="3.75" height="3.75" fill="#CE9FE3"/>
<rect x="52.5" y="37.5" width="3.75" height="3.75" fill="#CE9FE3"/>
<rect x="3.75" y="41.25" width="3.75" height="3.75" fill="#CE9FE3"/>
<rect x="7.5" y="41.25" width="3.75" height="3.75" fill="#CE9FE3"/>
<rect x="11.25" y="41.25" width="3.75" height="3.75" fill="#CE9FE3"/>
<rect x="15" y="41.25" width="3.75" height="3.75" fill="#CE9FE3"/>
<rect x="18.75" y="41.25" width="3.75" height="3.75" fill="#CE9FE3"/>
<rect x="22.5" y="41.25" width="3.75" height="3.75" fill="#CE9FE3"/>
<rect x="26.25" y="41.25" width="3.75" height="3.75" fill="#CE9FE3"/>
<rect x="30" y="41.25" width="3.75" height="3.75" fill="#CE9FE3"/>
<rect x="33.75" y="41.25" width="3.75" height="3.75" fill="#CE9FE3"/>
<rect x="37.5" y="41.25" width="3.75" height="3.75" fill="#CE9FE3"/>
<rect x="41.25" y="41.25" width="3.75" height="3.75" fill="#CE9FE3"/>
<rect x="45" y="41.25" width="3.75" height="3.75" fill="#CE9FE3"/>
<rect x="48.75" y="41.25" width="3.75" height="3.75" fill="#CE9FE3"/>
<rect x="52.5" y="41.25" width="3.75" height="3.75" fill="#CE9FE3"/>
<rect x="3.75" y="45" width="3.75" height="3.75" fill="#CE9FE3"/>
<rect x="7.5" y="45" width="3.75" height="3.75" fill="#CE9FE3"/>
<rect x="11.25" y="45" width="3.75" height="3.75" fill="#CE9FE3"/>
<rect x="15" y="45" width="3.75" height="3.75" fill="#CE9FE3"/>
<rect x="18.75" y="45" width="3.75" height="3.75" fill="#CE9FE3"/>
<rect x="22.5" y="45" width="3.75" height="3.75" fill="#CE9FE3"/>
<rect x="26.25" y="45" width="3.75" height="3.75" fill="#CE9FE3"/>
<rect x="30" y="45" width="3.75" height="3.75" fill="#CE9FE3"/>
<rect x="33.75" y="45" width="3.75" height="3.75" fill="#CE9FE3"/>
<rect x="37.5" y="45" width="3.75" height="3.75" fill="#CE9FE3"/>
<rect x="41.25" y="45" width="3.75" height="3.75" fill="#CE9FE3"/>
<rect x="45" y="45" width="3.75" height="3.75" fill="#CE9FE3"/>
<rect x="48.75" y="45" width="3.75" height="3.75" fill="#CE9FE3"/>
<rect x="52.5" y="45" width="3.75" height="3.75" fill="#CE9FE3"/>
<rect x="11.25" y="48.75" width="3.75" height="3.75" fill="#CE9FE3"/>
<rect x="15" y="48.75" width="3.75" height="3.75" fill="#CE9FE3"/>
<rect x="18.75" y="48.75" width="3.75" height="3.75" fill="#CE9FE3"/>
<rect x="22.5" y="48.75" width="3.75" height="3.75" fill="#CE9FE3"/>
<rect x="26.25" y="48.75" width="3.75" height="3.75" fill="#CE9FE3"/>
<rect x="30" y="48.75" width="3.75" height="3.75" fill="#CE9FE3"/>
<rect x="33.75" y="48.75" width="3.75" height="3.75" fill="#CE9FE3"/>
<rect x="37.5" y="48.75" width="3.75" height="3.75" fill="#CE9FE3"/>
<rect x="41.25" y="48.75" width="3.75" height="3.75" fill="#CE9FE3"/>
<rect x="45" y="48.75" width="3.75" height="3.75" fill="#CE9FE3"/>
<rect x="48.75" y="48.75" width="3.75" height="3.75" fill="#CE9FE3"/>
<rect x="52.5" y="48.75" width="3.75" height="3.75" fill="#CE9FE3"/>
<rect x="15" y="52.5" width="3.75" height="3.75" fill="#CE9FE3"/>
<rect x="18.75" y="52.5" width="3.75" height="3.75" fill="#CE9FE3"/>
<rect x="22.5" y="52.5" width="3.75" height="3.75" fill="#CE9FE3"/>
<rect x="26.25" y="52.5" width="3.75" height="3.75" fill="#CE9FE3"/>
<rect x="30" y="52.5" width="3.75" height="3.75" fill="#CE9FE3"/>
<path fill-rule="evenodd" clip-rule="evenodd" d="M26.7863 28.2113H31.4287V30.5238C32.0975 29.1938 33.8125 27.9988 36.3888 27.9988C41.3275 27.9988 42.5 30.6463 42.5 35.5037V44.5H37.5V36.61C37.5 33.8438 36.8313 32.2838 35.1287 32.2838C32.7675 32.2838 31.7863 33.965 31.7863 36.6087V44.5H26.7863V28.2113ZM18.2125 44.2875H23.2125V27.9988H18.2125V44.2875ZM23.9288 22.6875C23.9289 23.1066 23.8458 23.5215 23.6842 23.9082C23.5226 24.2949 23.2858 24.6456 22.9875 24.94C22.383 25.5408 21.5648 25.8771 20.7125 25.875C19.8617 25.8744 19.0454 25.539 18.44 24.9413C18.1428 24.6459 17.9067 24.2948 17.7454 23.908C17.5841 23.5213 17.5007 23.1065 17.5 22.6875C17.5 21.8413 17.8375 21.0313 18.4413 20.4338C19.0461 19.8352 19.8628 19.4996 20.7138 19.5C21.5663 19.5 22.3837 19.8363 22.9875 20.4338C23.59 21.0313 23.9288 21.8413 23.9288 22.6875Z" fill="white"/>
</svg>
