<svg width="30" height="30" viewBox="0 0 30 30" fill="none" xmlns="http://www.w3.org/2000/svg">
<rect x="5.625" y="5.625" width="1.875" height="1.875" fill="white"/>
<rect x="5.625" y="7.5" width="1.875" height="1.875" fill="white"/>
<rect x="7.5" y="7.5" width="1.875" height="1.875" fill="white"/>
<rect x="9.375" y="7.5" width="1.875" height="1.875" fill="white"/>
<rect x="5.625" y="9.375" width="1.875" height="1.875" fill="white"/>
<rect x="7.5" y="9.375" width="1.875" height="1.875" fill="white"/>
<rect x="9.375" y="9.375" width="1.875" height="1.875" fill="white"/>
<rect x="11.25" y="9.375" width="1.875" height="1.875" fill="white"/>
<rect x="13.125" y="9.375" width="1.875" height="1.875" fill="white"/>
<rect x="5.625" y="11.25" width="1.875" height="1.875" fill="white"/>
<rect x="7.5" y="11.25" width="1.875" height="1.875" fill="white"/>
<rect x="9.375" y="11.25" width="1.875" height="1.875" fill="white"/>
<rect x="11.25" y="11.25" width="1.875" height="1.875" fill="white"/>
<rect x="13.125" y="11.25" width="1.875" height="1.875" fill="white"/>
<rect x="15" y="11.25" width="1.875" height="1.875" fill="white"/>
<rect x="16.875" y="11.25" width="1.875" height="1.875" fill="white"/>
<rect x="5.625" y="13.125" width="1.875" height="1.875" fill="white"/>
<rect x="7.5" y="13.125" width="1.875" height="1.875" fill="white"/>
<rect x="9.375" y="13.125" width="1.875" height="1.875" fill="white"/>
<rect x="11.25" y="13.125" width="1.875" height="1.875" fill="white"/>
<rect x="13.125" y="13.125" width="1.875" height="1.875" fill="white"/>
<rect x="15" y="13.125" width="1.875" height="1.875" fill="white"/>
<rect x="16.875" y="13.125" width="1.875" height="1.875" fill="white"/>
<rect x="18.75" y="13.125" width="1.875" height="1.875" fill="white"/>
<rect x="20.625" y="13.125" width="1.875" height="1.875" fill="white"/>
<rect x="5.625" y="15" width="1.875" height="1.875" fill="white"/>
<rect x="7.5" y="15" width="1.875" height="1.875" fill="white"/>
<rect x="9.375" y="15" width="1.875" height="1.875" fill="white"/>
<rect x="11.25" y="15" width="1.875" height="1.875" fill="white"/>
<rect x="13.125" y="15" width="1.875" height="1.875" fill="white"/>
<rect x="15" y="15" width="1.875" height="1.875" fill="white"/>
<rect x="16.875" y="15" width="1.875" height="1.875" fill="white"/>
<rect x="18.75" y="15" width="1.875" height="1.875" fill="white"/>
<rect x="20.625" y="15" width="1.875" height="1.875" fill="white"/>
<rect x="22.5" y="15" width="1.875" height="1.875" fill="white"/>
<rect x="5.625" y="16.875" width="1.875" height="1.875" fill="white"/>
<rect x="7.5" y="16.875" width="1.875" height="1.875" fill="white"/>
<rect x="9.375" y="16.875" width="1.875" height="1.875" fill="white"/>
<rect x="11.25" y="16.875" width="1.875" height="1.875" fill="white"/>
<rect x="13.125" y="16.875" width="1.875" height="1.875" fill="white"/>
<rect x="15" y="16.875" width="1.875" height="1.875" fill="white"/>
<rect x="16.875" y="16.875" width="1.875" height="1.875" fill="white"/>
<rect x="18.75" y="16.875" width="1.875" height="1.875" fill="white"/>
<rect x="20.625" y="16.875" width="1.875" height="1.875" fill="white"/>
<rect x="5.625" y="18.75" width="1.875" height="1.875" fill="white"/>
<rect x="7.5" y="18.75" width="1.875" height="1.875" fill="white"/>
<rect x="9.375" y="18.75" width="1.875" height="1.875" fill="white"/>
<rect x="11.25" y="18.75" width="1.875" height="1.875" fill="white"/>
<rect x="13.125" y="18.75" width="1.875" height="1.875" fill="white"/>
<rect x="15" y="18.75" width="1.875" height="1.875" fill="white"/>
<rect x="16.875" y="18.75" width="1.875" height="1.875" fill="white"/>
<rect x="5.625" y="20.625" width="1.875" height="1.875" fill="white"/>
<rect x="7.5" y="20.625" width="1.875" height="1.875" fill="white"/>
<rect x="9.375" y="20.625" width="1.875" height="1.875" fill="white"/>
<rect x="11.25" y="20.625" width="1.875" height="1.875" fill="white"/>
<rect x="13.125" y="20.625" width="1.875" height="1.875" fill="white"/>
<rect x="5.625" y="22.5" width="1.875" height="1.875" fill="white"/>
<rect x="7.5" y="22.5" width="1.875" height="1.875" fill="white"/>
<rect x="9.375" y="22.5" width="1.875" height="1.875" fill="white"/>
<rect x="5.625" y="24.375" width="1.875" height="1.875" fill="white"/>
</svg>
