<svg width="60" height="60" viewBox="0 0 60 60" fill="none" xmlns="http://www.w3.org/2000/svg">
<rect x="11.25" y="3.75" width="3.75" height="3.75" fill="#CE9FE3"/>
<rect x="15" y="3.75" width="3.75" height="3.75" fill="#CE9FE3"/>
<rect x="18.75" y="3.75" width="3.75" height="3.75" fill="#CE9FE3"/>
<rect x="22.5" y="3.75" width="3.75" height="3.75" fill="#CE9FE3"/>
<rect x="26.25" y="3.75" width="3.75" height="3.75" fill="#CE9FE3"/>
<rect x="30" y="3.75" width="3.75" height="3.75" fill="#CE9FE3"/>
<rect x="33.75" y="3.75" width="3.75" height="3.75" fill="#CE9FE3"/>
<rect x="37.5" y="3.75" width="3.75" height="3.75" fill="#CE9FE3"/>
<rect x="41.25" y="3.75" width="3.75" height="3.75" fill="#CE9FE3"/>
<rect x="11.25" y="7.5" width="3.75" height="3.75" fill="#CE9FE3"/>
<rect x="15" y="7.5" width="3.75" height="3.75" fill="#CE9FE3"/>
<rect x="18.75" y="7.5" width="3.75" height="3.75" fill="#CE9FE3"/>
<rect x="22.5" y="7.5" width="3.75" height="3.75" fill="#CE9FE3"/>
<rect x="26.25" y="7.5" width="3.75" height="3.75" fill="#CE9FE3"/>
<rect x="30" y="7.5" width="3.75" height="3.75" fill="#CE9FE3"/>
<rect x="33.75" y="7.5" width="3.75" height="3.75" fill="#CE9FE3"/>
<rect x="37.5" y="7.5" width="3.75" height="3.75" fill="#CE9FE3"/>
<rect x="41.25" y="7.5" width="3.75" height="3.75" fill="#CE9FE3"/>
<rect x="11.25" y="11.25" width="3.75" height="3.75" fill="#CE9FE3"/>
<rect x="15" y="11.25" width="3.75" height="3.75" fill="#CE9FE3"/>
<rect x="18.75" y="11.25" width="3.75" height="3.75" fill="#CE9FE3"/>
<rect x="22.5" y="11.25" width="3.75" height="3.75" fill="#CE9FE3"/>
<rect x="26.25" y="11.25" width="3.75" height="3.75" fill="#CE9FE3"/>
<rect x="30" y="11.25" width="3.75" height="3.75" fill="#CE9FE3"/>
<rect x="33.75" y="11.25" width="3.75" height="3.75" fill="#CE9FE3"/>
<rect x="37.5" y="11.25" width="3.75" height="3.75" fill="#CE9FE3"/>
<rect x="41.25" y="11.25" width="3.75" height="3.75" fill="#CE9FE3"/>
<rect x="45" y="11.25" width="3.75" height="3.75" fill="#CE9FE3"/>
<rect x="48.75" y="11.25" width="3.75" height="3.75" fill="#CE9FE3"/>
<rect x="11.25" y="15" width="3.75" height="3.75" fill="#CE9FE3"/>
<rect x="15" y="15" width="3.75" height="3.75" fill="#CE9FE3"/>
<rect x="18.75" y="15" width="3.75" height="3.75" fill="#CE9FE3"/>
<rect x="22.5" y="15" width="3.75" height="3.75" fill="#CE9FE3"/>
<rect x="26.25" y="15" width="3.75" height="3.75" fill="#CE9FE3"/>
<rect x="30" y="15" width="3.75" height="3.75" fill="#CE9FE3"/>
<rect x="33.75" y="15" width="3.75" height="3.75" fill="#CE9FE3"/>
<rect x="37.5" y="15" width="3.75" height="3.75" fill="#CE9FE3"/>
<rect x="41.25" y="15" width="3.75" height="3.75" fill="#CE9FE3"/>
<rect x="45" y="15" width="3.75" height="3.75" fill="#CE9FE3"/>
<rect x="48.75" y="15" width="3.75" height="3.75" fill="#CE9FE3"/>
<rect x="52.5" y="15" width="3.75" height="3.75" fill="#CE9FE3"/>
<rect x="7.5" y="18.75" width="3.75" height="3.75" fill="#CE9FE3"/>
<rect x="11.25" y="18.75" width="3.75" height="3.75" fill="#CE9FE3"/>
<rect x="15" y="18.75" width="3.75" height="3.75" fill="#CE9FE3"/>
<rect x="18.75" y="18.75" width="3.75" height="3.75" fill="#CE9FE3"/>
<rect x="22.5" y="18.75" width="3.75" height="3.75" fill="#CE9FE3"/>
<rect x="26.25" y="18.75" width="3.75" height="3.75" fill="#CE9FE3"/>
<rect x="30" y="18.75" width="3.75" height="3.75" fill="#CE9FE3"/>
<rect x="33.75" y="18.75" width="3.75" height="3.75" fill="#CE9FE3"/>
<rect x="37.5" y="18.75" width="3.75" height="3.75" fill="#CE9FE3"/>
<rect x="41.25" y="18.75" width="3.75" height="3.75" fill="#CE9FE3"/>
<rect x="45" y="18.75" width="3.75" height="3.75" fill="#CE9FE3"/>
<rect x="48.75" y="18.75" width="3.75" height="3.75" fill="#CE9FE3"/>
<rect x="52.5" y="18.75" width="3.75" height="3.75" fill="#CE9FE3"/>
<rect x="3.75" y="22.5" width="3.75" height="3.75" fill="#CE9FE3"/>
<rect x="7.5" y="22.5" width="3.75" height="3.75" fill="#CE9FE3"/>
<rect x="11.25" y="22.5" width="3.75" height="3.75" fill="#CE9FE3"/>
<rect x="15" y="22.5" width="3.75" height="3.75" fill="#CE9FE3"/>
<rect x="18.75" y="22.5" width="3.75" height="3.75" fill="#CE9FE3"/>
<rect x="22.5" y="22.5" width="3.75" height="3.75" fill="#CE9FE3"/>
<rect x="26.25" y="22.5" width="3.75" height="3.75" fill="#CE9FE3"/>
<rect x="30" y="22.5" width="3.75" height="3.75" fill="#CE9FE3"/>
<rect x="33.75" y="22.5" width="3.75" height="3.75" fill="#CE9FE3"/>
<rect x="37.5" y="22.5" width="3.75" height="3.75" fill="#CE9FE3"/>
<rect x="41.25" y="22.5" width="3.75" height="3.75" fill="#CE9FE3"/>
<rect x="45" y="22.5" width="3.75" height="3.75" fill="#CE9FE3"/>
<rect x="48.75" y="22.5" width="3.75" height="3.75" fill="#CE9FE3"/>
<rect x="52.5" y="22.5" width="3.75" height="3.75" fill="#CE9FE3"/>
<rect x="3.75" y="26.25" width="3.75" height="3.75" fill="#CE9FE3"/>
<rect x="7.5" y="26.25" width="3.75" height="3.75" fill="#CE9FE3"/>
<rect x="11.25" y="26.25" width="3.75" height="3.75" fill="#CE9FE3"/>
<rect x="15" y="26.25" width="3.75" height="3.75" fill="#CE9FE3"/>
<rect x="18.75" y="26.25" width="3.75" height="3.75" fill="#CE9FE3"/>
<rect x="22.5" y="26.25" width="3.75" height="3.75" fill="#CE9FE3"/>
<rect x="26.25" y="26.25" width="3.75" height="3.75" fill="#CE9FE3"/>
<rect x="30" y="26.25" width="3.75" height="3.75" fill="#CE9FE3"/>
<rect x="33.75" y="26.25" width="3.75" height="3.75" fill="#CE9FE3"/>
<rect x="37.5" y="26.25" width="3.75" height="3.75" fill="#CE9FE3"/>
<rect x="41.25" y="26.25" width="3.75" height="3.75" fill="#CE9FE3"/>
<rect x="45" y="26.25" width="3.75" height="3.75" fill="#CE9FE3"/>
<rect x="48.75" y="26.25" width="3.75" height="3.75" fill="#CE9FE3"/>
<rect x="52.5" y="26.25" width="3.75" height="3.75" fill="#CE9FE3"/>
<rect x="3.75" y="30" width="3.75" height="3.75" fill="#CE9FE3"/>
<rect x="7.5" y="30" width="3.75" height="3.75" fill="#CE9FE3"/>
<rect x="11.25" y="30" width="3.75" height="3.75" fill="#CE9FE3"/>
<rect x="15" y="30" width="3.75" height="3.75" fill="#CE9FE3"/>
<rect x="18.75" y="30" width="3.75" height="3.75" fill="#CE9FE3"/>
<rect x="22.5" y="30" width="3.75" height="3.75" fill="#CE9FE3"/>
<rect x="26.25" y="30" width="3.75" height="3.75" fill="#CE9FE3"/>
<rect x="30" y="30" width="3.75" height="3.75" fill="#CE9FE3"/>
<rect x="33.75" y="30" width="3.75" height="3.75" fill="#CE9FE3"/>
<rect x="37.5" y="30" width="3.75" height="3.75" fill="#CE9FE3"/>
<rect x="41.25" y="30" width="3.75" height="3.75" fill="#CE9FE3"/>
<rect x="45" y="30" width="3.75" height="3.75" fill="#CE9FE3"/>
<rect x="48.75" y="30" width="3.75" height="3.75" fill="#CE9FE3"/>
<rect x="52.5" y="30" width="3.75" height="3.75" fill="#CE9FE3"/>
<rect x="3.75" y="33.75" width="3.75" height="3.75" fill="#CE9FE3"/>
<rect x="7.5" y="33.75" width="3.75" height="3.75" fill="#CE9FE3"/>
<rect x="11.25" y="33.75" width="3.75" height="3.75" fill="#CE9FE3"/>
<rect x="15" y="33.75" width="3.75" height="3.75" fill="#CE9FE3"/>
<rect x="18.75" y="33.75" width="3.75" height="3.75" fill="#CE9FE3"/>
<rect x="22.5" y="33.75" width="3.75" height="3.75" fill="#CE9FE3"/>
<rect x="26.25" y="33.75" width="3.75" height="3.75" fill="#CE9FE3"/>
<rect x="30" y="33.75" width="3.75" height="3.75" fill="#CE9FE3"/>
<rect x="33.75" y="33.75" width="3.75" height="3.75" fill="#CE9FE3"/>
<rect x="37.5" y="33.75" width="3.75" height="3.75" fill="#CE9FE3"/>
<rect x="41.25" y="33.75" width="3.75" height="3.75" fill="#CE9FE3"/>
<rect x="45" y="33.75" width="3.75" height="3.75" fill="#CE9FE3"/>
<rect x="48.75" y="33.75" width="3.75" height="3.75" fill="#CE9FE3"/>
<rect x="52.5" y="33.75" width="3.75" height="3.75" fill="#CE9FE3"/>
<rect x="3.75" y="37.5" width="3.75" height="3.75" fill="#CE9FE3"/>
<rect x="7.5" y="37.5" width="3.75" height="3.75" fill="#CE9FE3"/>
<rect x="11.25" y="37.5" width="3.75" height="3.75" fill="#CE9FE3"/>
<rect x="15" y="37.5" width="3.75" height="3.75" fill="#CE9FE3"/>
<rect x="18.75" y="37.5" width="3.75" height="3.75" fill="#CE9FE3"/>
<rect x="22.5" y="37.5" width="3.75" height="3.75" fill="#CE9FE3"/>
<rect x="26.25" y="37.5" width="3.75" height="3.75" fill="#CE9FE3"/>
<rect x="30" y="37.5" width="3.75" height="3.75" fill="#CE9FE3"/>
<rect x="33.75" y="37.5" width="3.75" height="3.75" fill="#CE9FE3"/>
<rect x="37.5" y="37.5" width="3.75" height="3.75" fill="#CE9FE3"/>
<rect x="41.25" y="37.5" width="3.75" height="3.75" fill="#CE9FE3"/>
<rect x="45" y="37.5" width="3.75" height="3.75" fill="#CE9FE3"/>
<rect x="48.75" y="37.5" width="3.75" height="3.75" fill="#CE9FE3"/>
<rect x="52.5" y="37.5" width="3.75" height="3.75" fill="#CE9FE3"/>
<rect x="3.75" y="41.25" width="3.75" height="3.75" fill="#CE9FE3"/>
<rect x="7.5" y="41.25" width="3.75" height="3.75" fill="#CE9FE3"/>
<rect x="11.25" y="41.25" width="3.75" height="3.75" fill="#CE9FE3"/>
<rect x="15" y="41.25" width="3.75" height="3.75" fill="#CE9FE3"/>
<rect x="18.75" y="41.25" width="3.75" height="3.75" fill="#CE9FE3"/>
<rect x="22.5" y="41.25" width="3.75" height="3.75" fill="#CE9FE3"/>
<rect x="26.25" y="41.25" width="3.75" height="3.75" fill="#CE9FE3"/>
<rect x="30" y="41.25" width="3.75" height="3.75" fill="#CE9FE3"/>
<rect x="33.75" y="41.25" width="3.75" height="3.75" fill="#CE9FE3"/>
<rect x="37.5" y="41.25" width="3.75" height="3.75" fill="#CE9FE3"/>
<rect x="41.25" y="41.25" width="3.75" height="3.75" fill="#CE9FE3"/>
<rect x="45" y="41.25" width="3.75" height="3.75" fill="#CE9FE3"/>
<rect x="48.75" y="41.25" width="3.75" height="3.75" fill="#CE9FE3"/>
<rect x="52.5" y="41.25" width="3.75" height="3.75" fill="#CE9FE3"/>
<rect x="3.75" y="45" width="3.75" height="3.75" fill="#CE9FE3"/>
<rect x="7.5" y="45" width="3.75" height="3.75" fill="#CE9FE3"/>
<rect x="11.25" y="45" width="3.75" height="3.75" fill="#CE9FE3"/>
<rect x="15" y="45" width="3.75" height="3.75" fill="#CE9FE3"/>
<rect x="18.75" y="45" width="3.75" height="3.75" fill="#CE9FE3"/>
<rect x="22.5" y="45" width="3.75" height="3.75" fill="#CE9FE3"/>
<rect x="26.25" y="45" width="3.75" height="3.75" fill="#CE9FE3"/>
<rect x="30" y="45" width="3.75" height="3.75" fill="#CE9FE3"/>
<rect x="33.75" y="45" width="3.75" height="3.75" fill="#CE9FE3"/>
<rect x="37.5" y="45" width="3.75" height="3.75" fill="#CE9FE3"/>
<rect x="41.25" y="45" width="3.75" height="3.75" fill="#CE9FE3"/>
<rect x="45" y="45" width="3.75" height="3.75" fill="#CE9FE3"/>
<rect x="48.75" y="45" width="3.75" height="3.75" fill="#CE9FE3"/>
<rect x="52.5" y="45" width="3.75" height="3.75" fill="#CE9FE3"/>
<rect x="11.25" y="48.75" width="3.75" height="3.75" fill="#CE9FE3"/>
<rect x="15" y="48.75" width="3.75" height="3.75" fill="#CE9FE3"/>
<rect x="18.75" y="48.75" width="3.75" height="3.75" fill="#CE9FE3"/>
<rect x="22.5" y="48.75" width="3.75" height="3.75" fill="#CE9FE3"/>
<rect x="26.25" y="48.75" width="3.75" height="3.75" fill="#CE9FE3"/>
<rect x="30" y="48.75" width="3.75" height="3.75" fill="#CE9FE3"/>
<rect x="33.75" y="48.75" width="3.75" height="3.75" fill="#CE9FE3"/>
<rect x="37.5" y="48.75" width="3.75" height="3.75" fill="#CE9FE3"/>
<rect x="41.25" y="48.75" width="3.75" height="3.75" fill="#CE9FE3"/>
<rect x="45" y="48.75" width="3.75" height="3.75" fill="#CE9FE3"/>
<rect x="48.75" y="48.75" width="3.75" height="3.75" fill="#CE9FE3"/>
<rect x="52.5" y="48.75" width="3.75" height="3.75" fill="#CE9FE3"/>
<rect x="15" y="52.5" width="3.75" height="3.75" fill="#CE9FE3"/>
<rect x="18.75" y="52.5" width="3.75" height="3.75" fill="#CE9FE3"/>
<rect x="22.5" y="52.5" width="3.75" height="3.75" fill="#CE9FE3"/>
<rect x="26.25" y="52.5" width="3.75" height="3.75" fill="#CE9FE3"/>
<rect x="30" y="52.5" width="3.75" height="3.75" fill="#CE9FE3"/>
<path d="M25.547 41.7522C34.604 41.7522 39.557 34.2492 39.557 27.7422C39.557 27.5292 39.557 27.3172 39.543 27.1062C40.5069 26.4088 41.3389 25.5454 42 24.5562C41.1015 24.9548 40.1482 25.2164 39.172 25.3322C40.1997 24.7165 40.9687 23.7485 41.336 22.6082C40.3697 23.1816 39.3124 23.5858 38.21 23.8032C37.4675 23.0137 36.4856 22.491 35.4161 22.3158C34.3466 22.1406 33.2492 22.3228 32.2937 22.8342C31.3382 23.3455 30.5779 24.1575 30.1303 25.1445C29.6828 26.1315 29.573 27.2385 29.818 28.2942C27.8604 28.1961 25.9453 27.6874 24.197 26.8012C22.4488 25.915 20.9064 24.6711 19.67 23.1502C19.0405 24.2343 18.8478 25.5175 19.1311 26.7386C19.4144 27.9598 20.1525 29.0271 21.195 29.7232C20.4113 29.6998 19.6447 29.4882 18.96 29.1062V29.1692C18.9603 30.306 19.3538 31.4077 20.0737 32.2875C20.7937 33.1673 21.7957 33.771 22.91 33.9962C22.1851 34.1936 21.4247 34.2224 20.687 34.0802C21.0016 35.0586 21.6141 35.9142 22.4389 36.5274C23.2637 37.1406 24.2594 37.4807 25.287 37.5002C24.266 38.3024 23.0969 38.8954 21.8465 39.2455C20.5962 39.5955 19.2891 39.6957 18 39.5402C20.2516 40.9855 22.8715 41.7524 25.547 41.7492" fill="white"/>
</svg>
