<svg width="60" height="60" viewBox="0 0 60 60" fill="none" xmlns="http://www.w3.org/2000/svg">
<rect x="11.25" y="3.75" width="3.75" height="3.75" fill="#CE9FE3"/>
<rect x="15" y="3.75" width="3.75" height="3.75" fill="#CE9FE3"/>
<rect x="18.75" y="3.75" width="3.75" height="3.75" fill="#CE9FE3"/>
<rect x="22.5" y="3.75" width="3.75" height="3.75" fill="#CE9FE3"/>
<rect x="26.25" y="3.75" width="3.75" height="3.75" fill="#CE9FE3"/>
<rect x="30" y="3.75" width="3.75" height="3.75" fill="#CE9FE3"/>
<rect x="33.75" y="3.75" width="3.75" height="3.75" fill="#CE9FE3"/>
<rect x="37.5" y="3.75" width="3.75" height="3.75" fill="#CE9FE3"/>
<rect x="41.25" y="3.75" width="3.75" height="3.75" fill="#CE9FE3"/>
<rect x="11.25" y="7.5" width="3.75" height="3.75" fill="#CE9FE3"/>
<rect x="15" y="7.5" width="3.75" height="3.75" fill="#CE9FE3"/>
<rect x="18.75" y="7.5" width="3.75" height="3.75" fill="#CE9FE3"/>
<rect x="22.5" y="7.5" width="3.75" height="3.75" fill="#CE9FE3"/>
<rect x="26.25" y="7.5" width="3.75" height="3.75" fill="#CE9FE3"/>
<rect x="30" y="7.5" width="3.75" height="3.75" fill="#CE9FE3"/>
<rect x="33.75" y="7.5" width="3.75" height="3.75" fill="#CE9FE3"/>
<rect x="37.5" y="7.5" width="3.75" height="3.75" fill="#CE9FE3"/>
<rect x="41.25" y="7.5" width="3.75" height="3.75" fill="#CE9FE3"/>
<rect x="11.25" y="11.25" width="3.75" height="3.75" fill="#CE9FE3"/>
<rect x="15" y="11.25" width="3.75" height="3.75" fill="#CE9FE3"/>
<rect x="18.75" y="11.25" width="3.75" height="3.75" fill="#CE9FE3"/>
<rect x="22.5" y="11.25" width="3.75" height="3.75" fill="#CE9FE3"/>
<rect x="26.25" y="11.25" width="3.75" height="3.75" fill="#CE9FE3"/>
<rect x="30" y="11.25" width="3.75" height="3.75" fill="#CE9FE3"/>
<rect x="33.75" y="11.25" width="3.75" height="3.75" fill="#CE9FE3"/>
<rect x="37.5" y="11.25" width="3.75" height="3.75" fill="#CE9FE3"/>
<rect x="41.25" y="11.25" width="3.75" height="3.75" fill="#CE9FE3"/>
<rect x="45" y="11.25" width="3.75" height="3.75" fill="#CE9FE3"/>
<rect x="48.75" y="11.25" width="3.75" height="3.75" fill="#CE9FE3"/>
<rect x="11.25" y="15" width="3.75" height="3.75" fill="#CE9FE3"/>
<rect x="15" y="15" width="3.75" height="3.75" fill="#CE9FE3"/>
<rect x="18.75" y="15" width="3.75" height="3.75" fill="#CE9FE3"/>
<rect x="22.5" y="15" width="3.75" height="3.75" fill="#CE9FE3"/>
<rect x="26.25" y="15" width="3.75" height="3.75" fill="#CE9FE3"/>
<rect x="30" y="15" width="3.75" height="3.75" fill="#CE9FE3"/>
<rect x="33.75" y="15" width="3.75" height="3.75" fill="#CE9FE3"/>
<rect x="37.5" y="15" width="3.75" height="3.75" fill="#CE9FE3"/>
<rect x="41.25" y="15" width="3.75" height="3.75" fill="#CE9FE3"/>
<rect x="45" y="15" width="3.75" height="3.75" fill="#CE9FE3"/>
<rect x="48.75" y="15" width="3.75" height="3.75" fill="#CE9FE3"/>
<rect x="52.5" y="15" width="3.75" height="3.75" fill="#CE9FE3"/>
<rect x="7.5" y="18.75" width="3.75" height="3.75" fill="#CE9FE3"/>
<rect x="11.25" y="18.75" width="3.75" height="3.75" fill="#CE9FE3"/>
<rect x="15" y="18.75" width="3.75" height="3.75" fill="#CE9FE3"/>
<rect x="18.75" y="18.75" width="3.75" height="3.75" fill="#CE9FE3"/>
<rect x="22.5" y="18.75" width="3.75" height="3.75" fill="#CE9FE3"/>
<rect x="26.25" y="18.75" width="3.75" height="3.75" fill="#CE9FE3"/>
<rect x="30" y="18.75" width="3.75" height="3.75" fill="#CE9FE3"/>
<rect x="33.75" y="18.75" width="3.75" height="3.75" fill="#CE9FE3"/>
<rect x="37.5" y="18.75" width="3.75" height="3.75" fill="#CE9FE3"/>
<rect x="41.25" y="18.75" width="3.75" height="3.75" fill="#CE9FE3"/>
<rect x="45" y="18.75" width="3.75" height="3.75" fill="#CE9FE3"/>
<rect x="48.75" y="18.75" width="3.75" height="3.75" fill="#CE9FE3"/>
<rect x="52.5" y="18.75" width="3.75" height="3.75" fill="#CE9FE3"/>
<rect x="3.75" y="22.5" width="3.75" height="3.75" fill="#CE9FE3"/>
<rect x="7.5" y="22.5" width="3.75" height="3.75" fill="#CE9FE3"/>
<rect x="11.25" y="22.5" width="3.75" height="3.75" fill="#CE9FE3"/>
<rect x="15" y="22.5" width="3.75" height="3.75" fill="#CE9FE3"/>
<rect x="18.75" y="22.5" width="3.75" height="3.75" fill="#CE9FE3"/>
<rect x="22.5" y="22.5" width="3.75" height="3.75" fill="#CE9FE3"/>
<rect x="26.25" y="22.5" width="3.75" height="3.75" fill="#CE9FE3"/>
<rect x="30" y="22.5" width="3.75" height="3.75" fill="#CE9FE3"/>
<rect x="33.75" y="22.5" width="3.75" height="3.75" fill="#CE9FE3"/>
<rect x="37.5" y="22.5" width="3.75" height="3.75" fill="#CE9FE3"/>
<rect x="41.25" y="22.5" width="3.75" height="3.75" fill="#CE9FE3"/>
<rect x="45" y="22.5" width="3.75" height="3.75" fill="#CE9FE3"/>
<rect x="48.75" y="22.5" width="3.75" height="3.75" fill="#CE9FE3"/>
<rect x="52.5" y="22.5" width="3.75" height="3.75" fill="#CE9FE3"/>
<rect x="3.75" y="26.25" width="3.75" height="3.75" fill="#CE9FE3"/>
<rect x="7.5" y="26.25" width="3.75" height="3.75" fill="#CE9FE3"/>
<rect x="11.25" y="26.25" width="3.75" height="3.75" fill="#CE9FE3"/>
<rect x="15" y="26.25" width="3.75" height="3.75" fill="#CE9FE3"/>
<rect x="18.75" y="26.25" width="3.75" height="3.75" fill="#CE9FE3"/>
<rect x="22.5" y="26.25" width="3.75" height="3.75" fill="#CE9FE3"/>
<rect x="26.25" y="26.25" width="3.75" height="3.75" fill="#CE9FE3"/>
<rect x="30" y="26.25" width="3.75" height="3.75" fill="#CE9FE3"/>
<rect x="33.75" y="26.25" width="3.75" height="3.75" fill="#CE9FE3"/>
<rect x="37.5" y="26.25" width="3.75" height="3.75" fill="#CE9FE3"/>
<rect x="41.25" y="26.25" width="3.75" height="3.75" fill="#CE9FE3"/>
<rect x="45" y="26.25" width="3.75" height="3.75" fill="#CE9FE3"/>
<rect x="48.75" y="26.25" width="3.75" height="3.75" fill="#CE9FE3"/>
<rect x="52.5" y="26.25" width="3.75" height="3.75" fill="#CE9FE3"/>
<rect x="3.75" y="30" width="3.75" height="3.75" fill="#CE9FE3"/>
<rect x="7.5" y="30" width="3.75" height="3.75" fill="#CE9FE3"/>
<rect x="11.25" y="30" width="3.75" height="3.75" fill="#CE9FE3"/>
<rect x="15" y="30" width="3.75" height="3.75" fill="#CE9FE3"/>
<rect x="18.75" y="30" width="3.75" height="3.75" fill="#CE9FE3"/>
<rect x="22.5" y="30" width="3.75" height="3.75" fill="#CE9FE3"/>
<rect x="26.25" y="30" width="3.75" height="3.75" fill="#CE9FE3"/>
<rect x="30" y="30" width="3.75" height="3.75" fill="#CE9FE3"/>
<rect x="33.75" y="30" width="3.75" height="3.75" fill="#CE9FE3"/>
<rect x="37.5" y="30" width="3.75" height="3.75" fill="#CE9FE3"/>
<rect x="41.25" y="30" width="3.75" height="3.75" fill="#CE9FE3"/>
<rect x="45" y="30" width="3.75" height="3.75" fill="#CE9FE3"/>
<rect x="48.75" y="30" width="3.75" height="3.75" fill="#CE9FE3"/>
<rect x="52.5" y="30" width="3.75" height="3.75" fill="#CE9FE3"/>
<rect x="3.75" y="33.75" width="3.75" height="3.75" fill="#CE9FE3"/>
<rect x="7.5" y="33.75" width="3.75" height="3.75" fill="#CE9FE3"/>
<rect x="11.25" y="33.75" width="3.75" height="3.75" fill="#CE9FE3"/>
<rect x="15" y="33.75" width="3.75" height="3.75" fill="#CE9FE3"/>
<rect x="18.75" y="33.75" width="3.75" height="3.75" fill="#CE9FE3"/>
<rect x="22.5" y="33.75" width="3.75" height="3.75" fill="#CE9FE3"/>
<rect x="26.25" y="33.75" width="3.75" height="3.75" fill="#CE9FE3"/>
<rect x="30" y="33.75" width="3.75" height="3.75" fill="#CE9FE3"/>
<rect x="33.75" y="33.75" width="3.75" height="3.75" fill="#CE9FE3"/>
<rect x="37.5" y="33.75" width="3.75" height="3.75" fill="#CE9FE3"/>
<rect x="41.25" y="33.75" width="3.75" height="3.75" fill="#CE9FE3"/>
<rect x="45" y="33.75" width="3.75" height="3.75" fill="#CE9FE3"/>
<rect x="48.75" y="33.75" width="3.75" height="3.75" fill="#CE9FE3"/>
<rect x="52.5" y="33.75" width="3.75" height="3.75" fill="#CE9FE3"/>
<rect x="3.75" y="37.5" width="3.75" height="3.75" fill="#CE9FE3"/>
<rect x="7.5" y="37.5" width="3.75" height="3.75" fill="#CE9FE3"/>
<rect x="11.25" y="37.5" width="3.75" height="3.75" fill="#CE9FE3"/>
<rect x="15" y="37.5" width="3.75" height="3.75" fill="#CE9FE3"/>
<rect x="18.75" y="37.5" width="3.75" height="3.75" fill="#CE9FE3"/>
<rect x="22.5" y="37.5" width="3.75" height="3.75" fill="#CE9FE3"/>
<rect x="26.25" y="37.5" width="3.75" height="3.75" fill="#CE9FE3"/>
<rect x="30" y="37.5" width="3.75" height="3.75" fill="#CE9FE3"/>
<rect x="33.75" y="37.5" width="3.75" height="3.75" fill="#CE9FE3"/>
<rect x="37.5" y="37.5" width="3.75" height="3.75" fill="#CE9FE3"/>
<rect x="41.25" y="37.5" width="3.75" height="3.75" fill="#CE9FE3"/>
<rect x="45" y="37.5" width="3.75" height="3.75" fill="#CE9FE3"/>
<rect x="48.75" y="37.5" width="3.75" height="3.75" fill="#CE9FE3"/>
<rect x="52.5" y="37.5" width="3.75" height="3.75" fill="#CE9FE3"/>
<rect x="3.75" y="41.25" width="3.75" height="3.75" fill="#CE9FE3"/>
<rect x="7.5" y="41.25" width="3.75" height="3.75" fill="#CE9FE3"/>
<rect x="11.25" y="41.25" width="3.75" height="3.75" fill="#CE9FE3"/>
<rect x="15" y="41.25" width="3.75" height="3.75" fill="#CE9FE3"/>
<rect x="18.75" y="41.25" width="3.75" height="3.75" fill="#CE9FE3"/>
<rect x="22.5" y="41.25" width="3.75" height="3.75" fill="#CE9FE3"/>
<rect x="26.25" y="41.25" width="3.75" height="3.75" fill="#CE9FE3"/>
<rect x="30" y="41.25" width="3.75" height="3.75" fill="#CE9FE3"/>
<rect x="33.75" y="41.25" width="3.75" height="3.75" fill="#CE9FE3"/>
<rect x="37.5" y="41.25" width="3.75" height="3.75" fill="#CE9FE3"/>
<rect x="41.25" y="41.25" width="3.75" height="3.75" fill="#CE9FE3"/>
<rect x="45" y="41.25" width="3.75" height="3.75" fill="#CE9FE3"/>
<rect x="48.75" y="41.25" width="3.75" height="3.75" fill="#CE9FE3"/>
<rect x="52.5" y="41.25" width="3.75" height="3.75" fill="#CE9FE3"/>
<rect x="3.75" y="45" width="3.75" height="3.75" fill="#CE9FE3"/>
<rect x="7.5" y="45" width="3.75" height="3.75" fill="#CE9FE3"/>
<rect x="11.25" y="45" width="3.75" height="3.75" fill="#CE9FE3"/>
<rect x="15" y="45" width="3.75" height="3.75" fill="#CE9FE3"/>
<rect x="18.75" y="45" width="3.75" height="3.75" fill="#CE9FE3"/>
<rect x="22.5" y="45" width="3.75" height="3.75" fill="#CE9FE3"/>
<rect x="26.25" y="45" width="3.75" height="3.75" fill="#CE9FE3"/>
<rect x="30" y="45" width="3.75" height="3.75" fill="#CE9FE3"/>
<rect x="33.75" y="45" width="3.75" height="3.75" fill="#CE9FE3"/>
<rect x="37.5" y="45" width="3.75" height="3.75" fill="#CE9FE3"/>
<rect x="41.25" y="45" width="3.75" height="3.75" fill="#CE9FE3"/>
<rect x="45" y="45" width="3.75" height="3.75" fill="#CE9FE3"/>
<rect x="48.75" y="45" width="3.75" height="3.75" fill="#CE9FE3"/>
<rect x="52.5" y="45" width="3.75" height="3.75" fill="#CE9FE3"/>
<rect x="11.25" y="48.75" width="3.75" height="3.75" fill="#CE9FE3"/>
<rect x="15" y="48.75" width="3.75" height="3.75" fill="#CE9FE3"/>
<rect x="18.75" y="48.75" width="3.75" height="3.75" fill="#CE9FE3"/>
<rect x="22.5" y="48.75" width="3.75" height="3.75" fill="#CE9FE3"/>
<rect x="26.25" y="48.75" width="3.75" height="3.75" fill="#CE9FE3"/>
<rect x="30" y="48.75" width="3.75" height="3.75" fill="#CE9FE3"/>
<rect x="33.75" y="48.75" width="3.75" height="3.75" fill="#CE9FE3"/>
<rect x="37.5" y="48.75" width="3.75" height="3.75" fill="#CE9FE3"/>
<rect x="41.25" y="48.75" width="3.75" height="3.75" fill="#CE9FE3"/>
<rect x="45" y="48.75" width="3.75" height="3.75" fill="#CE9FE3"/>
<rect x="48.75" y="48.75" width="3.75" height="3.75" fill="#CE9FE3"/>
<rect x="52.5" y="48.75" width="3.75" height="3.75" fill="#CE9FE3"/>
<rect x="15" y="52.5" width="3.75" height="3.75" fill="#CE9FE3"/>
<rect x="18.75" y="52.5" width="3.75" height="3.75" fill="#CE9FE3"/>
<rect x="22.5" y="52.5" width="3.75" height="3.75" fill="#CE9FE3"/>
<rect x="26.25" y="52.5" width="3.75" height="3.75" fill="#CE9FE3"/>
<rect x="30" y="52.5" width="3.75" height="3.75" fill="#CE9FE3"/>
<path d="M26.4974 43.875H31.4974V33.8625H36.0024L36.4974 28.8875H31.4974V26.375C31.4974 26.0435 31.6291 25.7255 31.8636 25.4911C32.098 25.2567 32.4159 25.125 32.7474 25.125H36.4974V20.125H32.7474C31.0898 20.125 29.5001 20.7835 28.328 21.9556C27.1559 23.1277 26.4974 24.7174 26.4974 26.375V28.8875H23.9974L23.5024 33.8625H26.4974V43.875Z" fill="white"/>
</svg>
