<svg width="60" height="60" viewBox="0 0 60 60" fill="none" xmlns="http://www.w3.org/2000/svg">
<rect x="11.25" y="3.75" width="3.75" height="3.75" fill="#CE9FE3"/>
<rect x="15" y="3.75" width="3.75" height="3.75" fill="#CE9FE3"/>
<rect x="18.75" y="3.75" width="3.75" height="3.75" fill="#CE9FE3"/>
<rect x="22.5" y="3.75" width="3.75" height="3.75" fill="#CE9FE3"/>
<rect x="26.25" y="3.75" width="3.75" height="3.75" fill="#CE9FE3"/>
<rect x="30" y="3.75" width="3.75" height="3.75" fill="#CE9FE3"/>
<rect x="33.75" y="3.75" width="3.75" height="3.75" fill="#CE9FE3"/>
<rect x="37.5" y="3.75" width="3.75" height="3.75" fill="#CE9FE3"/>
<rect x="41.25" y="3.75" width="3.75" height="3.75" fill="#CE9FE3"/>
<rect x="11.25" y="7.5" width="3.75" height="3.75" fill="#CE9FE3"/>
<rect x="15" y="7.5" width="3.75" height="3.75" fill="#CE9FE3"/>
<rect x="18.75" y="7.5" width="3.75" height="3.75" fill="#CE9FE3"/>
<rect x="22.5" y="7.5" width="3.75" height="3.75" fill="#CE9FE3"/>
<rect x="26.25" y="7.5" width="3.75" height="3.75" fill="#CE9FE3"/>
<rect x="30" y="7.5" width="3.75" height="3.75" fill="#CE9FE3"/>
<rect x="33.75" y="7.5" width="3.75" height="3.75" fill="#CE9FE3"/>
<rect x="37.5" y="7.5" width="3.75" height="3.75" fill="#CE9FE3"/>
<rect x="41.25" y="7.5" width="3.75" height="3.75" fill="#CE9FE3"/>
<rect x="11.25" y="11.25" width="3.75" height="3.75" fill="#CE9FE3"/>
<rect x="15" y="11.25" width="3.75" height="3.75" fill="#CE9FE3"/>
<rect x="18.75" y="11.25" width="3.75" height="3.75" fill="#CE9FE3"/>
<rect x="22.5" y="11.25" width="3.75" height="3.75" fill="#CE9FE3"/>
<rect x="26.25" y="11.25" width="3.75" height="3.75" fill="#CE9FE3"/>
<rect x="30" y="11.25" width="3.75" height="3.75" fill="#CE9FE3"/>
<rect x="33.75" y="11.25" width="3.75" height="3.75" fill="#CE9FE3"/>
<rect x="37.5" y="11.25" width="3.75" height="3.75" fill="#CE9FE3"/>
<rect x="41.25" y="11.25" width="3.75" height="3.75" fill="#CE9FE3"/>
<rect x="45" y="11.25" width="3.75" height="3.75" fill="#CE9FE3"/>
<rect x="48.75" y="11.25" width="3.75" height="3.75" fill="#CE9FE3"/>
<rect x="11.25" y="15" width="3.75" height="3.75" fill="#CE9FE3"/>
<rect x="15" y="15" width="3.75" height="3.75" fill="#CE9FE3"/>
<rect x="18.75" y="15" width="3.75" height="3.75" fill="#CE9FE3"/>
<rect x="22.5" y="15" width="3.75" height="3.75" fill="#CE9FE3"/>
<rect x="26.25" y="15" width="3.75" height="3.75" fill="#CE9FE3"/>
<rect x="30" y="15" width="3.75" height="3.75" fill="#CE9FE3"/>
<rect x="33.75" y="15" width="3.75" height="3.75" fill="#CE9FE3"/>
<rect x="37.5" y="15" width="3.75" height="3.75" fill="#CE9FE3"/>
<rect x="41.25" y="15" width="3.75" height="3.75" fill="#CE9FE3"/>
<rect x="45" y="15" width="3.75" height="3.75" fill="#CE9FE3"/>
<rect x="48.75" y="15" width="3.75" height="3.75" fill="#CE9FE3"/>
<rect x="52.5" y="15" width="3.75" height="3.75" fill="#CE9FE3"/>
<rect x="7.5" y="18.75" width="3.75" height="3.75" fill="#CE9FE3"/>
<rect x="11.25" y="18.75" width="3.75" height="3.75" fill="#CE9FE3"/>
<rect x="15" y="18.75" width="3.75" height="3.75" fill="#CE9FE3"/>
<rect x="18.75" y="18.75" width="3.75" height="3.75" fill="#CE9FE3"/>
<rect x="22.5" y="18.75" width="3.75" height="3.75" fill="#CE9FE3"/>
<rect x="26.25" y="18.75" width="3.75" height="3.75" fill="#CE9FE3"/>
<rect x="30" y="18.75" width="3.75" height="3.75" fill="#CE9FE3"/>
<rect x="33.75" y="18.75" width="3.75" height="3.75" fill="#CE9FE3"/>
<rect x="37.5" y="18.75" width="3.75" height="3.75" fill="#CE9FE3"/>
<rect x="41.25" y="18.75" width="3.75" height="3.75" fill="#CE9FE3"/>
<rect x="45" y="18.75" width="3.75" height="3.75" fill="#CE9FE3"/>
<rect x="48.75" y="18.75" width="3.75" height="3.75" fill="#CE9FE3"/>
<rect x="52.5" y="18.75" width="3.75" height="3.75" fill="#CE9FE3"/>
<rect x="3.75" y="22.5" width="3.75" height="3.75" fill="#CE9FE3"/>
<rect x="7.5" y="22.5" width="3.75" height="3.75" fill="#CE9FE3"/>
<rect x="11.25" y="22.5" width="3.75" height="3.75" fill="#CE9FE3"/>
<rect x="15" y="22.5" width="3.75" height="3.75" fill="#CE9FE3"/>
<rect x="18.75" y="22.5" width="3.75" height="3.75" fill="#CE9FE3"/>
<rect x="22.5" y="22.5" width="3.75" height="3.75" fill="#CE9FE3"/>
<rect x="26.25" y="22.5" width="3.75" height="3.75" fill="#CE9FE3"/>
<rect x="30" y="22.5" width="3.75" height="3.75" fill="#CE9FE3"/>
<rect x="33.75" y="22.5" width="3.75" height="3.75" fill="#CE9FE3"/>
<rect x="37.5" y="22.5" width="3.75" height="3.75" fill="#CE9FE3"/>
<rect x="41.25" y="22.5" width="3.75" height="3.75" fill="#CE9FE3"/>
<rect x="45" y="22.5" width="3.75" height="3.75" fill="#CE9FE3"/>
<rect x="48.75" y="22.5" width="3.75" height="3.75" fill="#CE9FE3"/>
<rect x="52.5" y="22.5" width="3.75" height="3.75" fill="#CE9FE3"/>
<rect x="3.75" y="26.25" width="3.75" height="3.75" fill="#CE9FE3"/>
<rect x="7.5" y="26.25" width="3.75" height="3.75" fill="#CE9FE3"/>
<rect x="11.25" y="26.25" width="3.75" height="3.75" fill="#CE9FE3"/>
<rect x="15" y="26.25" width="3.75" height="3.75" fill="#CE9FE3"/>
<rect x="18.75" y="26.25" width="3.75" height="3.75" fill="#CE9FE3"/>
<rect x="22.5" y="26.25" width="3.75" height="3.75" fill="#CE9FE3"/>
<rect x="26.25" y="26.25" width="3.75" height="3.75" fill="#CE9FE3"/>
<rect x="30" y="26.25" width="3.75" height="3.75" fill="#CE9FE3"/>
<rect x="33.75" y="26.25" width="3.75" height="3.75" fill="#CE9FE3"/>
<rect x="37.5" y="26.25" width="3.75" height="3.75" fill="#CE9FE3"/>
<rect x="41.25" y="26.25" width="3.75" height="3.75" fill="#CE9FE3"/>
<rect x="45" y="26.25" width="3.75" height="3.75" fill="#CE9FE3"/>
<rect x="48.75" y="26.25" width="3.75" height="3.75" fill="#CE9FE3"/>
<rect x="52.5" y="26.25" width="3.75" height="3.75" fill="#CE9FE3"/>
<rect x="3.75" y="30" width="3.75" height="3.75" fill="#CE9FE3"/>
<rect x="7.5" y="30" width="3.75" height="3.75" fill="#CE9FE3"/>
<rect x="11.25" y="30" width="3.75" height="3.75" fill="#CE9FE3"/>
<rect x="15" y="30" width="3.75" height="3.75" fill="#CE9FE3"/>
<rect x="18.75" y="30" width="3.75" height="3.75" fill="#CE9FE3"/>
<rect x="22.5" y="30" width="3.75" height="3.75" fill="#CE9FE3"/>
<rect x="26.25" y="30" width="3.75" height="3.75" fill="#CE9FE3"/>
<rect x="30" y="30" width="3.75" height="3.75" fill="#CE9FE3"/>
<rect x="33.75" y="30" width="3.75" height="3.75" fill="#CE9FE3"/>
<rect x="37.5" y="30" width="3.75" height="3.75" fill="#CE9FE3"/>
<rect x="41.25" y="30" width="3.75" height="3.75" fill="#CE9FE3"/>
<rect x="45" y="30" width="3.75" height="3.75" fill="#CE9FE3"/>
<rect x="48.75" y="30" width="3.75" height="3.75" fill="#CE9FE3"/>
<rect x="52.5" y="30" width="3.75" height="3.75" fill="#CE9FE3"/>
<rect x="3.75" y="33.75" width="3.75" height="3.75" fill="#CE9FE3"/>
<rect x="7.5" y="33.75" width="3.75" height="3.75" fill="#CE9FE3"/>
<rect x="11.25" y="33.75" width="3.75" height="3.75" fill="#CE9FE3"/>
<rect x="15" y="33.75" width="3.75" height="3.75" fill="#CE9FE3"/>
<rect x="18.75" y="33.75" width="3.75" height="3.75" fill="#CE9FE3"/>
<rect x="22.5" y="33.75" width="3.75" height="3.75" fill="#CE9FE3"/>
<rect x="26.25" y="33.75" width="3.75" height="3.75" fill="#CE9FE3"/>
<rect x="30" y="33.75" width="3.75" height="3.75" fill="#CE9FE3"/>
<rect x="33.75" y="33.75" width="3.75" height="3.75" fill="#CE9FE3"/>
<rect x="37.5" y="33.75" width="3.75" height="3.75" fill="#CE9FE3"/>
<rect x="41.25" y="33.75" width="3.75" height="3.75" fill="#CE9FE3"/>
<rect x="45" y="33.75" width="3.75" height="3.75" fill="#CE9FE3"/>
<rect x="48.75" y="33.75" width="3.75" height="3.75" fill="#CE9FE3"/>
<rect x="52.5" y="33.75" width="3.75" height="3.75" fill="#CE9FE3"/>
<rect x="3.75" y="37.5" width="3.75" height="3.75" fill="#CE9FE3"/>
<rect x="7.5" y="37.5" width="3.75" height="3.75" fill="#CE9FE3"/>
<rect x="11.25" y="37.5" width="3.75" height="3.75" fill="#CE9FE3"/>
<rect x="15" y="37.5" width="3.75" height="3.75" fill="#CE9FE3"/>
<rect x="18.75" y="37.5" width="3.75" height="3.75" fill="#CE9FE3"/>
<rect x="22.5" y="37.5" width="3.75" height="3.75" fill="#CE9FE3"/>
<rect x="26.25" y="37.5" width="3.75" height="3.75" fill="#CE9FE3"/>
<rect x="30" y="37.5" width="3.75" height="3.75" fill="#CE9FE3"/>
<rect x="33.75" y="37.5" width="3.75" height="3.75" fill="#CE9FE3"/>
<rect x="37.5" y="37.5" width="3.75" height="3.75" fill="#CE9FE3"/>
<rect x="41.25" y="37.5" width="3.75" height="3.75" fill="#CE9FE3"/>
<rect x="45" y="37.5" width="3.75" height="3.75" fill="#CE9FE3"/>
<rect x="48.75" y="37.5" width="3.75" height="3.75" fill="#CE9FE3"/>
<rect x="52.5" y="37.5" width="3.75" height="3.75" fill="#CE9FE3"/>
<rect x="3.75" y="41.25" width="3.75" height="3.75" fill="#CE9FE3"/>
<rect x="7.5" y="41.25" width="3.75" height="3.75" fill="#CE9FE3"/>
<rect x="11.25" y="41.25" width="3.75" height="3.75" fill="#CE9FE3"/>
<rect x="15" y="41.25" width="3.75" height="3.75" fill="#CE9FE3"/>
<rect x="18.75" y="41.25" width="3.75" height="3.75" fill="#CE9FE3"/>
<rect x="22.5" y="41.25" width="3.75" height="3.75" fill="#CE9FE3"/>
<rect x="26.25" y="41.25" width="3.75" height="3.75" fill="#CE9FE3"/>
<rect x="30" y="41.25" width="3.75" height="3.75" fill="#CE9FE3"/>
<rect x="33.75" y="41.25" width="3.75" height="3.75" fill="#CE9FE3"/>
<rect x="37.5" y="41.25" width="3.75" height="3.75" fill="#CE9FE3"/>
<rect x="41.25" y="41.25" width="3.75" height="3.75" fill="#CE9FE3"/>
<rect x="45" y="41.25" width="3.75" height="3.75" fill="#CE9FE3"/>
<rect x="48.75" y="41.25" width="3.75" height="3.75" fill="#CE9FE3"/>
<rect x="52.5" y="41.25" width="3.75" height="3.75" fill="#CE9FE3"/>
<rect x="3.75" y="45" width="3.75" height="3.75" fill="#CE9FE3"/>
<rect x="7.5" y="45" width="3.75" height="3.75" fill="#CE9FE3"/>
<rect x="11.25" y="45" width="3.75" height="3.75" fill="#CE9FE3"/>
<rect x="15" y="45" width="3.75" height="3.75" fill="#CE9FE3"/>
<rect x="18.75" y="45" width="3.75" height="3.75" fill="#CE9FE3"/>
<rect x="22.5" y="45" width="3.75" height="3.75" fill="#CE9FE3"/>
<rect x="26.25" y="45" width="3.75" height="3.75" fill="#CE9FE3"/>
<rect x="30" y="45" width="3.75" height="3.75" fill="#CE9FE3"/>
<rect x="33.75" y="45" width="3.75" height="3.75" fill="#CE9FE3"/>
<rect x="37.5" y="45" width="3.75" height="3.75" fill="#CE9FE3"/>
<rect x="41.25" y="45" width="3.75" height="3.75" fill="#CE9FE3"/>
<rect x="45" y="45" width="3.75" height="3.75" fill="#CE9FE3"/>
<rect x="48.75" y="45" width="3.75" height="3.75" fill="#CE9FE3"/>
<rect x="52.5" y="45" width="3.75" height="3.75" fill="#CE9FE3"/>
<rect x="11.25" y="48.75" width="3.75" height="3.75" fill="#CE9FE3"/>
<rect x="15" y="48.75" width="3.75" height="3.75" fill="#CE9FE3"/>
<rect x="18.75" y="48.75" width="3.75" height="3.75" fill="#CE9FE3"/>
<rect x="22.5" y="48.75" width="3.75" height="3.75" fill="#CE9FE3"/>
<rect x="26.25" y="48.75" width="3.75" height="3.75" fill="#CE9FE3"/>
<rect x="30" y="48.75" width="3.75" height="3.75" fill="#CE9FE3"/>
<rect x="33.75" y="48.75" width="3.75" height="3.75" fill="#CE9FE3"/>
<rect x="37.5" y="48.75" width="3.75" height="3.75" fill="#CE9FE3"/>
<rect x="41.25" y="48.75" width="3.75" height="3.75" fill="#CE9FE3"/>
<rect x="45" y="48.75" width="3.75" height="3.75" fill="#CE9FE3"/>
<rect x="48.75" y="48.75" width="3.75" height="3.75" fill="#CE9FE3"/>
<rect x="52.5" y="48.75" width="3.75" height="3.75" fill="#CE9FE3"/>
<rect x="15" y="52.5" width="3.75" height="3.75" fill="#CE9FE3"/>
<rect x="18.75" y="52.5" width="3.75" height="3.75" fill="#CE9FE3"/>
<rect x="22.5" y="52.5" width="3.75" height="3.75" fill="#CE9FE3"/>
<rect x="26.25" y="52.5" width="3.75" height="3.75" fill="#CE9FE3"/>
<rect x="30" y="52.5" width="3.75" height="3.75" fill="#CE9FE3"/>
<g clip-path="url(#clip0_57_9897)">
<path d="M31.4999 29.3335C30.3948 29.3335 29.335 29.7725 28.5536 30.5539C27.7722 31.3353 27.3333 32.3951 27.3333 33.5002C27.3333 34.6052 27.7722 35.665 28.5536 36.4464C29.335 37.2278 30.3948 37.6668 31.4999 37.6668C32.605 37.6668 33.6648 37.2278 34.4462 36.4464C35.2276 35.665 35.6666 34.6052 35.6666 33.5002C35.6666 32.3951 35.2276 31.3353 34.4462 30.5539C33.6648 29.7725 32.605 29.3335 31.4999 29.3335Z" fill="white"/>
<path fill-rule="evenodd" clip-rule="evenodd" d="M26.5 21C24.5109 21 22.6032 21.7902 21.1967 23.1967C19.7902 24.6032 19 26.5109 19 28.5V38.5C19 40.4891 19.7902 42.3968 21.1967 43.8033C22.6032 45.2098 24.5109 46 26.5 46H36.5C38.4891 46 40.3968 45.2098 41.8033 43.8033C43.2098 42.3968 44 40.4891 44 38.5V28.5C44 26.5109 43.2098 24.6032 41.8033 23.1967C40.3968 21.7902 38.4891 21 36.5 21H26.5ZM25.6667 33.5C25.6667 31.9529 26.2812 30.4692 27.3752 29.3752C28.4692 28.2812 29.9529 27.6667 31.5 27.6667C33.0471 27.6667 34.5308 28.2812 35.6248 29.3752C36.7188 30.4692 37.3333 31.9529 37.3333 33.5C37.3333 35.0471 36.7188 36.5308 35.6248 37.6248C34.5308 38.7188 33.0471 39.3333 31.5 39.3333C29.9529 39.3333 28.4692 38.7188 27.3752 37.6248C26.2812 36.5308 25.6667 35.0471 25.6667 33.5ZM37.3333 27.6667H39V26H37.3333V27.6667Z" fill="white"/>
</g>
<defs>
<clipPath id="clip0_57_9897">
<rect width="25" height="25" fill="white" transform="translate(19 21)"/>
</clipPath>
</defs>
</svg>
