<svg width="420" height="308" viewBox="0 0 420 308" fill="none" xmlns="http://www.w3.org/2000/svg">
<rect x="34.1279" y="301" width="95.5558" height="6.99994" fill="#3F2773"/>
<rect x="129.681" y="293.999" width="88.7304" height="6.99994" fill="#3F2773"/>
<rect x="218.412" y="301" width="95.5558" height="6.99994" fill="#3F2773"/>
<rect x="313.969" y="293.999" width="34.1271" height="6.99994" fill="#3F2773"/>
<rect x="348.094" y="301" width="61.4287" height="6.99994" fill="#3F2773"/>
<rect width="6.82541" height="167.998" transform="matrix(-1 0 0 1 13.6504 42.0034)" fill="#3F2773"/>
<rect x="13.6504" y="210.003" width="6.82541" height="83.9992" fill="#3F2773"/>
<rect x="409.525" y="252.001" width="6.82541" height="48.9995" fill="#3F2773"/>
<rect x="416.35" y="112.003" width="6.82541" height="139.999" fill="#3F2773"/>
<rect x="409.525" y="91.0042" width="6.82541" height="20.9998" fill="#3F2773"/>
<rect x="402.699" y="70.0027" width="6.82541" height="20.9998" fill="#3F2773"/>
<rect x="409.525" y="63.0022" width="13.6508" height="6.99994" fill="#3F2773"/>
<rect x="416.35" y="14.0039" width="6.82541" height="6.99994" fill="#3F2773"/>
<rect x="300.317" y="7.00317" width="116.032" height="6.99994" fill="#3F2773"/>
<rect x="252.539" y="14.0039" width="47.7779" height="6.99994" fill="#3F2773"/>
<rect x="61.4272" y="7.00317" width="191.112" height="6.99994" fill="#3F2773"/>
<rect x="40.9517" y="14.0039" width="20.4762" height="6.99994" fill="#3F2773"/>
<rect x="34.1279" y="21.0015" width="6.82541" height="13.9999" fill="#3F2773"/>
<rect x="13.6504" y="35.0027" width="20.4762" height="6.99994" fill="#3F2773"/>
<rect x="20.4744" y="293.999" width="13.6508" height="6.99994" fill="#3F2773"/>
<rect x="61.4272" y="14.0039" width="191.112" height="279.997" fill="#3F2773"/>
<rect x="40.9517" y="21.0015" width="20.4762" height="272.998" fill="#3F2773"/>
<rect x="20.4744" y="42.0034" width="20.4762" height="167.998" fill="#3F2773"/>
<rect x="13.6504" y="42.0034" width="6.82541" height="167.998" fill="#3F2773"/>
<rect x="409.525" y="112.003" width="6.82541" height="139.999" fill="#3F2773"/>
<rect x="409.525" y="21.0015" width="13.6508" height="41.9996" fill="#3F2773"/>
<rect x="20.4744" y="210.003" width="20.4762" height="83.9992" fill="#3F2773"/>
<rect x="34.1279" y="293.999" width="95.5558" height="6.99994" fill="#3F2773"/>
<rect x="218.412" y="293.999" width="95.5558" height="6.99994" fill="#3F2773"/>
<rect x="348.094" y="112.003" width="61.4287" height="188.998" fill="#3F2773"/>
<rect x="252.539" y="21.0015" width="95.5558" height="272.998" fill="#3F2773"/>
<rect x="300.317" y="14.0039" width="116.032" height="6.99994" fill="#3F2773"/>
<rect x="402.699" y="91.0042" width="6.82541" height="20.9998" fill="#3F2773"/>
<rect x="402.699" y="21.0015" width="6.82541" height="48.9995" fill="#3F2773"/>
<rect x="348.094" y="21.0015" width="54.6033" height="90.9992" fill="#3F2773"/>
<rect x="27.3035" y="293.997" width="95.5558" height="6.99994" fill="#B6C6FF"/>
<rect x="122.857" y="286.996" width="88.7304" height="6.99994" fill="#B6C6FF"/>
<rect x="218.413" y="293.997" width="88.7304" height="6.99994" fill="#B6C6FF"/>
<rect x="307.144" y="286.996" width="34.1271" height="6.99994" fill="#B6C6FF"/>
<rect x="348.095" y="293.997" width="54.6033" height="6.99994" fill="#B6C6FF"/>
<rect width="6.82541" height="167.998" transform="matrix(-1 0 0 1 6.82544 35)" fill="#B6C6FF"/>
<rect x="6.82544" y="203" width="6.82541" height="83.9992" fill="#B6C6FF"/>
<rect x="402.698" y="244.998" width="6.82541" height="48.9995" fill="#B6C6FF"/>
<rect x="409.526" y="105" width="6.82541" height="139.999" fill="#B6C6FF"/>
<rect x="402.698" y="84.0012" width="6.82541" height="20.9998" fill="#B6C6FF"/>
<rect x="395.874" y="62.9995" width="6.82541" height="20.9998" fill="#B6C6FF"/>
<rect x="402.698" y="55.9993" width="13.6508" height="6.99994" fill="#B6C6FF"/>
<rect x="416.349" y="13.9985" width="6.82541" height="41.9996" fill="#B6C6FF"/>
<rect x="293.492" width="116.032" height="6.99994" fill="#B6C6FF"/>
<rect x="245.715" y="7.00024" width="47.7779" height="6.99994" fill="#B6C6FF"/>
<rect x="54.6023" width="191.112" height="6.99994" fill="#B6C6FF"/>
<rect x="34.1272" y="7.00024" width="20.4762" height="6.99994" fill="#B6C6FF"/>
<rect x="27.3035" y="13.9985" width="6.82541" height="13.9999" fill="#B6C6FF"/>
<rect x="6.82544" y="27.9995" width="20.4762" height="6.99994" fill="#B6C6FF"/>
<rect x="13.6494" y="286.996" width="13.6508" height="6.99994" fill="#B6C6FF"/>
<rect x="55" y="7" width="191.112" height="279.997" fill="#B6C6FF"/>
<rect x="34.1272" y="13.9985" width="20.4762" height="272.998" fill="#B6C6FF"/>
<rect x="13.6494" y="35" width="20.4762" height="167.998" fill="#B6C6FF"/>
<rect x="6.82544" y="35" width="6.82541" height="167.998" fill="#B6C6FF"/>
<rect x="402.698" y="105" width="6.82541" height="139.999" fill="#B6C6FF"/>
<rect x="402.698" y="13.9985" width="13.6508" height="41.9996" fill="#B6C6FF"/>
<rect x="13.6494" y="203" width="20.4762" height="83.9992" fill="#B6C6FF"/>
<rect x="27.3035" y="286.996" width="95.5558" height="6.99994" fill="#B6C6FF"/>
<rect x="211.588" y="286.996" width="95.5558" height="6.99994" fill="#B6C6FF"/>
<rect x="341.269" y="105" width="61.4287" height="188.998" fill="#B6C6FF"/>
<rect x="245.715" y="13.9985" width="95.5558" height="272.998" fill="#B6C6FF"/>
<rect x="293.492" y="7.00024" width="116.032" height="6.99994" fill="#B6C6FF"/>
<rect x="395.874" y="84.0012" width="6.82541" height="20.9998" fill="#B6C6FF"/>
<rect x="395.874" y="13.9985" width="6.82541" height="48.9995" fill="#B6C6FF"/>
<rect x="341.269" y="13.9985" width="54.6033" height="90.9992" fill="#B6C6FF"/>
<rect x="27.3035" y="27.9995" width="6.82541" height="6.99994" fill="#B6C6FF"/>
<rect width="6.82541" height="139.999" transform="matrix(1 0 0 -1 409.526 244.998)" fill="#D9D6FF"/>
<rect x="409.526" y="293.997" width="6.82541" height="48.9995" transform="rotate(180 409.526 293.997)" fill="#D9D6FF"/>
<rect x="402.698" y="300.997" width="54.6033" height="6.99994" transform="rotate(180 402.698 300.997)" fill="#D9D6FF"/>
<rect x="348.095" y="293.997" width="40.9525" height="6.99994" transform="rotate(180 348.095 293.997)" fill="#D9D6FF"/>
<rect x="307.144" y="300.997" width="88.7304" height="6.99994" transform="rotate(180 307.144 300.997)" fill="#D9D6FF"/>
<rect x="218.413" y="293.997" width="95.5558" height="6.99994" transform="rotate(180 218.413 293.997)" fill="#D9D6FF"/>
<rect x="122.857" y="300.997" width="95.5558" height="6.99994" transform="rotate(180 122.857 300.997)" fill="#D9D6FF"/>
<rect x="27.3035" y="293.997" width="13.6508" height="6.99994" transform="rotate(180 27.3035 293.997)" fill="#D9D6FF"/>
<rect x="13.6494" y="286.998" width="6.82541" height="83.9992" transform="rotate(180 13.6494 286.998)" fill="#D9D6FF"/>
<rect x="6.82544" y="203" width="6.82541" height="167.998" transform="rotate(180 6.82544 203)" fill="#D9D6FF"/>
<rect width="6.82541" height="13.9999" transform="matrix(1 0 0 -1 402.698 97.9998)" fill="#D9D6FF"/>
<rect width="6.82541" height="20.9998" transform="matrix(1 0 0 -1 395.874 84.0012)" fill="#D9D6FF"/>
<rect width="6.82541" height="6.99994" transform="matrix(1 0 0 -1 409.526 62.9995)" fill="#D9D6FF"/>
<rect width="6.82541" height="13.9999" transform="matrix(1 0 0 -1 409.526 20.999)" fill="#D9D6FF"/>
<rect width="6.82541" height="13.9999" transform="matrix(1 0 0 -1 402.698 14.0015)" fill="#D9D6FF"/>
<rect width="6.82541" height="41.9996" transform="matrix(1 0 0 -1 416.349 55.9993)" fill="#D9D6FF"/>
<rect x="6.82544" y="28.002" width="20.4762" height="6.99994" fill="#D9D6FF"/>
<rect x="27.3035" y="14.0015" width="6.82541" height="13.9999" fill="#D9D6FF"/>
<rect x="34.1272" y="7.00024" width="20.4762" height="6.99994" fill="#D9D6FF"/>
<rect x="54.6023" width="191.112" height="6.99994" fill="#D9D6FF"/>
<rect x="245.715" y="7.00024" width="47.7779" height="6.99994" fill="#D9D6FF"/>
<rect x="293.492" width="109.207" height="6.99994" fill="#D9D6FF"/>
<rect x="402.698" y="188.999" width="6.82541" height="13.9999" fill="#D9D6FF"/>
<rect x="402.698" y="126" width="6.82541" height="6.99994" fill="#D9D6FF"/>
<rect x="402.698" y="28.002" width="13.6508" height="6.99994" fill="#D9D6FF"/>
<rect x="409.526" y="35" width="6.82541" height="6.99994" fill="#D9D6FF"/>
<rect x="313.97" y="7.00024" width="47.7779" height="6.99994" fill="#D9D6FF"/>
<rect x="327.619" y="14.0015" width="13.6508" height="6.99994" fill="#D9D6FF"/>
<rect x="170.634" y="7.00024" width="13.6508" height="6.99994" fill="#D9D6FF"/>
<rect x="177.46" y="14.0015" width="6.82541" height="6.99994" fill="#D9D6FF"/>
<rect x="218.413" y="7.00024" width="20.4762" height="6.99994" fill="#D9D6FF"/>
<rect x="54.6023" y="7.00024" width="6.82541" height="6.99994" fill="#D9D6FF"/>
<rect x="54.6023" y="14.0015" width="13.6508" height="6.99994" fill="#D9D6FF"/>
<rect x="6.82544" y="35" width="6.82541" height="48.9995" fill="#D9D6FF"/>
<rect x="13.6494" y="35" width="6.82541" height="27.9997" fill="#D9D6FF"/>
<rect x="6.82544" y="140" width="6.82541" height="34.9997" fill="#D9D6FF"/>
<rect x="13.6494" y="167.999" width="6.82541" height="20.9998" fill="#D9D6FF"/>
<rect x="6.82544" y="188.999" width="6.82541" height="13.9999" fill="#D9D6FF"/>
<rect x="13.6494" y="209.998" width="6.82541" height="48.9995" fill="#D9D6FF"/>
<rect x="13.6494" y="265.999" width="6.82541" height="6.99994" fill="#D9D6FF"/>
<rect x="54.6023" y="286.998" width="20.4762" height="6.99994" fill="#D9D6FF"/>
<rect x="81.9058" y="286.998" width="13.6508" height="6.99994" fill="#D9D6FF"/>
<rect x="163.811" y="279.998" width="27.3017" height="6.99994" fill="#D9D6FF"/>
<rect x="259.367" y="286.998" width="6.82541" height="6.99994" fill="#D9D6FF"/>
<rect x="286.666" y="286.998" width="13.6508" height="6.99994" fill="#D9D6FF"/>
<rect x="327.619" y="279.998" width="13.6508" height="6.99994" fill="#D9D6FF"/>
<rect x="375.398" y="286.998" width="6.82541" height="6.99994" fill="#D9D6FF"/>
</svg>
