<svg width="362" height="252" viewBox="0 0 362 252" fill="none" xmlns="http://www.w3.org/2000/svg">
<rect x="6.95068" y="35.002" width="6.82541" height="34.9997" transform="rotate(-180 6.95068 35.002)" fill="#8177BA"/>
<rect x="34.2524" y="0.00219727" width="6.99994" height="27.3017" transform="rotate(90 34.2524 0.00219727)" fill="#8177BA"/>
<rect x="6.95068" y="14.0034" width="6.82541" height="6.99994" fill="#8177BA"/>
<rect x="13.7793" y="7.00293" width="6.82541" height="6.99994" fill="#8177BA"/>
<rect x="20.6025" y="21.002" width="6.82541" height="6.99994" fill="#8177BA"/>
<rect width="6.82541" height="34.9997" transform="matrix(1 0 0 -1 355.051 35.002)" fill="#8177BA"/>
<rect width="6.99994" height="27.3017" transform="matrix(0 1 1 0 327.748 0.00219727)" fill="#8177BA"/>
<rect width="6.82541" height="6.99994" transform="matrix(-1 0 0 1 355.051 14.0034)" fill="#8177BA"/>
<rect width="6.82541" height="6.99994" transform="matrix(-1 0 0 1 348.222 7.00293)" fill="#8177BA"/>
<rect width="6.82541" height="6.99994" transform="matrix(-1 0 0 1 341.399 21.002)" fill="#8177BA"/>
<rect x="355.051" y="216.997" width="6.82541" height="34.9997" fill="#8177BA"/>
<rect x="327.748" y="251.997" width="6.99994" height="27.3017" transform="rotate(-90 327.748 251.997)" fill="#8177BA"/>
<rect x="355.051" y="237.998" width="6.82541" height="6.99994" transform="rotate(180 355.051 237.998)" fill="#8177BA"/>
<rect x="348.222" y="244.999" width="6.82541" height="6.99994" transform="rotate(180 348.222 244.999)" fill="#8177BA"/>
<rect x="341.399" y="230.997" width="6.82541" height="6.99994" transform="rotate(180 341.399 230.997)" fill="#8177BA"/>
<rect width="6.82541" height="34.9997" transform="matrix(-1 0 0 1 6.95068 216.997)" fill="#8177BA"/>
<rect width="6.99994" height="27.3017" transform="matrix(0 -1 -1 0 34.2524 251.997)" fill="#8177BA"/>
<rect width="6.82541" height="6.99994" transform="matrix(1 0 0 -1 6.95068 237.998)" fill="#8177BA"/>
<rect width="6.82541" height="6.99994" transform="matrix(1 0 0 -1 13.7793 244.999)" fill="#8177BA"/>
<rect width="6.82541" height="6.99994" transform="matrix(1 0 0 -1 20.6025 230.997)" fill="#8177BA"/>
<rect x="0.127197" y="56.0012" width="6.82541" height="139.999" fill="#8177BA"/>
<rect x="355.049" y="56.0012" width="6.82541" height="139.999" fill="#8177BA"/>
</svg>
